<?xml version="1.0" encoding="UTF-8" standalone="no"?>
<svg
   viewBox="0 0 16 16"
   version="1.1"
   id="svg1528"
   sodipodi:docname="symbolic-edit-clear.svg"
   xml:space="preserve"
   inkscape:version="1.2 (dc2aeda, 2022-05-15)"
   xmlns:inkscape="http://www.inkscape.org/namespaces/inkscape"
   xmlns:sodipodi="http://sodipodi.sourceforge.net/DTD/sodipodi-0.dtd"
   xmlns="http://www.w3.org/2000/svg"
   xmlns:svg="http://www.w3.org/2000/svg"><sodipodi:namedview
     id="namedview1530"
     pagecolor="#ffffff"
     bordercolor="#666666"
     borderopacity="1.0"
     inkscape:showpageshadow="2"
     inkscape:pageopacity="0.0"
     inkscape:pagecheckerboard="0"
     inkscape:deskcolor="#d1d1d1"
     showgrid="true"
     showguides="true"
     inkscape:zoom="11.313709"
     inkscape:cx="13.523417"
     inkscape:cy="15.24699"
     inkscape:window-width="1366"
     inkscape:window-height="744"
     inkscape:window-x="0"
     inkscape:window-y="24"
     inkscape:window-maximized="1"
     inkscape:current-layer="svg1528"><inkscape:grid
       type="xygrid"
       id="grid1699" /><sodipodi:guide
       position="7.0039062,1.0078125"
       orientation="1,0"
       id="guide2126"
       inkscape:locked="false" /></sodipodi:namedview><defs
     id="defs3051"><style
       type="text/css"
       id="current-color-scheme">
      .ColorScheme-Text {
        color:#eff0f1;
      }
      </style></defs><g
     id="g2348"
     transform="translate(-16.005135,-1.003182)"><path
       id="rect2118"
       style="fill:#eff0f1;fill-opacity:1;stroke-width:16.5756;stroke-linecap:round;stroke-linejoin:round;paint-order:markers stroke fill"
       d="M 1.5366942,8.4760341 1.1831409,8.8295875 0.82958758,9.1831409 0.47603418,9.5366943 3.8761133,12.936774 4.2296666,12.58322 4.58322,12.229667 4.9367734,11.876114 Z" /><path
       id="path2123"
       style="fill:#eff0f1;fill-opacity:1;stroke-width:16.5756;stroke-linecap:round;stroke-linejoin:round;paint-order:markers stroke fill"
       d="m 4.1341577,11.06959 -0.353554,0.353554 -0.353553,0.353553 -0.3535533,0.353553 3.4000793,3.40008 0.353553,-0.353554 0.353553,-0.353553 0.353554,-0.353553 z" /><g
       id="g2134"
       transform="matrix(1,0,0,-1,0,24.006364)"
       style="fill:#eff0f1;fill-opacity:1"><path
         id="path2128"
         style="fill:#eff0f1;fill-opacity:1;stroke-width:16.5756;stroke-linecap:round;stroke-linejoin:round;paint-order:markers stroke fill"
         d="M 1.5366942,8.4760341 1.1831409,8.8295875 0.82958758,9.1831409 0.47603418,9.5366943 3.8761133,12.936774 4.2296666,12.58322 4.58322,12.229667 4.9367734,11.876114 Z" /><path
         id="path2130"
         style="fill:#eff0f1;fill-opacity:1;stroke-width:16.5756;stroke-linecap:round;stroke-linejoin:round;paint-order:markers stroke fill"
         d="m 4.1341577,11.06959 -0.353554,0.353554 -0.353553,0.353553 -0.3535533,0.353553 3.4000793,3.40008 0.353553,-0.353554 0.353553,-0.353553 0.353554,-0.353553 z" /></g></g><path
     style="fill:currentColor;fill-opacity:1;stroke:none"
     d="M 6,1.9999999 0.707032,7.2929687 0,7.9999999 0.707032,8.7070311 6,14 h 9 1 V 1.9999999 h -1 z m 2.001954,3 2.009765,2.0097656 L 12.021484,5 13.011719,5.9902344 11.001953,8 13.011719,10.009766 12.021484,11 10.011719,8.9902343 8.001954,11 7.011719,10.009766 9.021485,7.9999999 7.011719,5.9902343 Z"
     class="ColorScheme-Text"
     id="path1526" /></svg>
