<?xml version="1.0" encoding="UTF-8" standalone="no"?>
<!-- Created with Inkscape (http://www.inkscape.org/) -->

<svg
   width="48"
   height="48"
   viewBox="0 0 48 48"
   version="1.1"
   id="svg5"
   inkscape:version="1.1.2 (1:1.1+202202050950+0a00cf5339)"
   sodipodi:docname="app_logo.svg"
   xmlns:inkscape="http://www.inkscape.org/namespaces/inkscape"
   xmlns:sodipodi="http://sodipodi.sourceforge.net/DTD/sodipodi-0.dtd"
   xmlns="http://www.w3.org/2000/svg"
   xmlns:svg="http://www.w3.org/2000/svg">
  <sodipodi:namedview
     id="namedview7"
     pagecolor="#222629"
     bordercolor="#666666"
     borderopacity="1.0"
     inkscape:pageshadow="2"
     inkscape:pageopacity="0"
     inkscape:pagecheckerboard="0"
     inkscape:document-units="px"
     showgrid="true"
     inkscape:zoom="11.313709"
     inkscape:cx="17.235728"
     inkscape:cy="24.704543"
     inkscape:window-width="1366"
     inkscape:window-height="744"
     inkscape:window-x="0"
     inkscape:window-y="24"
     inkscape:window-maximized="1"
     inkscape:current-layer="g11062"
     units="px"
     width="48px"
     inkscape:snap-bbox="true"
     inkscape:object-paths="false"
     inkscape:snap-intersection-paths="true"
     inkscape:object-nodes="true"
     inkscape:bbox-nodes="true"
     showguides="true"
     inkscape:guide-bbox="true"
     inkscape:snap-grids="false"
     inkscape:snap-global="true">
    <inkscape:grid
       type="xygrid"
       id="grid2308" />
  </sodipodi:namedview>
  <defs
     id="defs2" />
  <g
     inkscape:groupmode="layer"
     id="layer2"
     inkscape:label="Camada 1">
    <g
       id="g11062">
      <rect
         style="fill:#3e8135;fill-opacity:1;stroke-width:2.09756;stroke-linecap:square;paint-order:markers stroke fill"
         id="rect926"
         width="43"
         height="43"
         x="2.5851309"
         y="3.3333902"
         ry="10.487805" />
      <g
         id="g16733"
         transform="translate(-0.42756407,0.56310457)">
        <path
           id="path7242"
           style="fill:#ffffff;fill-opacity:1;stroke-width:1.26496;stroke-linecap:square;paint-order:markers stroke fill"
           d="M 15,5.0136719 C 9.4549543,5.1507609 5,9.6777812 5,15.255859 5.040235,18.710753 6.7850284,21.834972 9.6953125,23.697266 10.225752,23.35307 10.855871,23.097195 11.402344,22.916016 8.6785211,21.432658 6.9746729,18.587765 6.9492188,15.486328 6.9492188,10.93485 10.512046,7.2280206 15,6.9746094 Z M 33.513672,6 v 0.9492188 c 4.715662,0 8.537109,3.8214472 8.537109,8.5371092 -0.02116,4.339031 -3.276683,8.065469 -7.589843,8.539063 0.01094,0.188805 -0.02965,0.40074 0,0.949218 h 0.002 c 0.191866,-0.0096 0.383288,-0.02567 0.574218,-0.04687 0.49405,-0.07938 0.952352,-0.271538 1.427735,-0.427734 -0.0062,-0.0025 -0.01335,-0.0053 -0.01953,-0.0078 0.599821,-0.198192 1.179899,-0.456349 1.728516,-0.769532 h 0.002 c 0.06534,-0.03936 0.130946,-0.08016 0.195313,-0.121094 0.475413,-0.285018 0.925283,-0.611101 1.34375,-0.974609 l 0.0059,-0.0039 c 0.07003,-0.0583 0.138712,-0.117446 0.207031,-0.177735 0.911187,-0.83998 1.649175,-1.850948 2.171875,-2.974609 0.05524,-0.125467 0.108455,-0.251164 0.158203,-0.378906 l 0.002,-0.0039 c 0.179845,-0.438063 0.324987,-0.889628 0.4375,-1.34961 0.0409,-0.152845 0.07813,-0.306238 0.111328,-0.460937 0.120129,-0.589235 0.184664,-1.18966 0.191406,-1.791016 -9.16e-4,-0.19287 -0.0069,-0.385669 -0.01953,-0.578125 v -0.002 -0.002 -0.002 -0.002 -0.002 c -0.0039,-0.05316 -0.0089,-0.107077 -0.01367,-0.160157 v -0.002 -0.002 -0.002 -0.002 c -0.01189,-0.149819 -0.02788,-0.298182 -0.04687,-0.447266 -0.0065,-0.04947 -0.01235,-0.09908 -0.01953,-0.148437 -0.02085,-0.142591 -0.04495,-0.286241 -0.07227,-0.427735 -0.01221,-0.0687 -0.02533,-0.136663 -0.03906,-0.205078 -0.03964,-0.184128 -0.08424,-0.367386 -0.134765,-0.548828 -0.01028,-0.03588 -0.02249,-0.07166 -0.0332,-0.107422 -0.04335,-0.148125 -0.0901,-0.295571 -0.140625,-0.441406 -0.01923,-0.05639 -0.0383,-0.11195 -0.05859,-0.167969 l -0.002,-0.0059 -0.002,-0.0039 c -0.04945,-0.135207 -0.102658,-0.267571 -0.158203,-0.40039 -0.0055,-0.01422 -0.01001,-0.02877 -0.01563,-0.04297 -0.02356,-0.05582 -0.04766,-0.112612 -0.07227,-0.167969 -0.05318,-0.118484 -0.109976,-0.235361 -0.167969,-0.351562 -0.02367,-0.049 -0.04776,-0.0979 -0.07227,-0.146484 -0.02194,-0.04031 -0.04389,-0.08111 -0.06641,-0.121094 -0.06412,-0.120634 -0.129943,-0.239669 -0.199218,-0.357422 -0.03281,-0.05469 -0.06571,-0.108092 -0.09961,-0.16211 l -0.0059,-0.0098 -0.0078,-0.01172 c -0.06814,-0.107789 -0.138369,-0.21294 -0.210937,-0.318359 -0.02809,-0.04099 -0.05722,-0.0825 -0.08594,-0.123047 -0.0269,-0.038496 -0.05262,-0.077141 -0.08008,-0.1152345 -0.06929,-0.094575 -0.142091,-0.1873557 -0.214843,-0.2792969 -0.04862,-0.063002 -0.09629,-0.1257411 -0.146485,-0.1875 l -0.0078,-0.00977 c -0.07793,-0.092928 -0.158812,-0.1835607 -0.240235,-0.2734375 -0.03245,-0.036695 -0.06464,-0.073187 -0.09766,-0.109375 -0.044,-0.046774 -0.08787,-0.0928 -0.132812,-0.1386719 -0.07706,-0.079812 -0.156517,-0.1592679 -0.236329,-0.2363281 -0.04587,-0.04494 -0.0919,-0.088813 -0.138671,-0.1328125 -0.03619,-0.033018 -0.07268,-0.065203 -0.109376,-0.097656 -0.08988,-0.081423 -0.180504,-0.1623171 -0.273437,-0.2402344 l -0.0098,-0.00781 c -0.06176,-0.050124 -0.124498,-0.097859 -0.1875,-0.1464844 -0.09194,-0.072753 -0.184721,-0.1455485 -0.279297,-0.2148437 -0.03809,-0.027461 -0.07674,-0.053187 -0.115234,-0.080078 -0.04054,-0.028732 -0.08206,-0.057847 -0.123047,-0.085937 -0.105418,-0.072567 -0.212043,-0.1426942 -0.320312,-0.2109375 l -0.0098,-0.00781 -0.0098,-0.00586 c -0.05395,-0.033905 -0.109374,-0.066805 -0.164063,-0.099609 -0.117753,-0.069274 -0.236788,-0.1350947 -0.357422,-0.1992188 -0.03999,-0.022527 -0.07883,-0.046415 -0.119141,-0.068359 -0.04859,-0.024508 -0.09748,-0.048597 -0.146484,-0.072266 -0.116201,-0.057993 -0.235031,-0.1128423 -0.353516,-0.1660156 -0.05536,-0.02462 -0.110196,-0.04871 -0.166015,-0.072266 -0.01419,-0.0056 -0.02875,-0.010101 -0.04297,-0.015625 -0.132819,-0.055545 -0.267136,-0.10876 -0.402344,-0.1582032 l -0.0039,-0.00195 -0.0039,-0.00195 C 36.707653,6.557367 36.650113,6.538308 36.593721,6.519073 36.447886,6.468551 36.30044,6.421795 36.152315,6.378448 36.116555,6.367736 36.080775,6.355533 36.044893,6.345245 35.86348,6.29518 35.682146,6.250114 35.498018,6.2104794 c -0.06842,-0.013727 -0.138331,-0.026848 -0.207031,-0.039063 -0.141494,-0.027322 -0.283191,-0.051417 -0.425782,-0.072266 -0.04936,-0.00718 -0.09897,-0.013126 -0.148437,-0.019531 -0.149084,-0.018991 -0.297447,-0.034988 -0.447266,-0.046875 h -0.0078 c -0.05308,-0.00477 -0.107002,-0.0098 -0.160157,-0.013672 h -0.0098 C 33.899364,6.0068637 33.706542,6.0009161 33.513672,6 Z m -18.97461,18.025391 c -0.188786,0.0092 -0.378506,0.02447 -0.566406,0.04492 -0.490767,0.07804 -0.974745,0.193817 -1.447265,0.347657 0.0056,0.0031 0.01201,0.0067 0.01758,0.0098 -0.600386,0.197484 -1.179236,0.454921 -1.728516,0.767578 -0.04033,0.02379 -0.08112,0.04789 -0.121094,0.07227 -0.03224,0.01957 -0.0637,0.03864 -0.0957,0.05859 l -0.0059,0.0039 c -0.462893,0.278369 -0.9016685,0.596263 -1.310547,0.949219 -0.017347,0.01476 -0.03354,0.03003 -0.050781,0.04492 -0.064323,0.0529 -0.1284982,0.105584 -0.1914063,0.160156 l -0.00586,0.0059 c -0.9049632,0.836748 -1.6083958,1.913992 -2.1289062,3.03125 l -0.00195,0.002 c -0.055288,0.126691 -0.1085031,0.253825 -0.1582032,0.382812 -0.1823527,0.442119 -0.3296615,0.898744 -0.4433594,1.363281 -0.039394,0.147352 -0.075178,0.29428 -0.1074218,0.44336 C 6.0720193,32.304959 6.0067633,32.909159 6,33.513672 c 0.00479,0.56462 0.059134,1.126835 0.1640625,1.68164 v 0.0039 c 0.038043,0.17972 0.082449,0.357947 0.1308594,0.535156 0.090441,0.380349 0.2032054,0.754795 0.3398437,1.121094 0.023511,0.0583 0.047601,0.116009 0.072266,0.173828 0.048598,0.125845 0.1003759,0.251342 0.1542969,0.375 l 0.00195,0.0059 c 0.1636383,0.35706 0.3500431,0.703064 0.5566407,1.03711 0.09064,0.157735 0.1855979,0.312579 0.2851562,0.464843 0.3185371,0.467222 0.677708,0.905429 1.0742188,1.308594 0.403164,0.396511 0.8413717,0.755682 1.3085938,1.074219 0.152264,0.09956 0.307107,0.194516 0.464843,0.285156 0.334046,0.206598 0.680049,0.393002 1.03711,0.556641 l 0.0059,0.002 c 0.180424,0.08105 0.36369,0.156944 0.548828,0.226562 0.366299,0.136638 0.740744,0.249403 1.121094,0.339844 0.08004,0.0202 0.159693,0.04048 0.240234,0.05859 0.09782,0.02565 0.196336,0.04975 0.294922,0.07227 h 0.0039 c 0.554774,0.104843 1.11702,0.159268 1.68164,0.164062 v -0.949219 c -4.715662,0 -8.5371089,-3.821447 -8.5371089,-8.537109 0.021589,-4.347994 3.2664429,-8.076759 7.5898429,-8.539063 -0.01895,-0.18796 0.955492,-0.760485 0.947266,-0.949218 0,0 -0.959859,0.133818 -0.947266,0 z M 39.4375,25.259766 c -0.346178,0.172937 -0.699252,0.330139 -1.060547,0.46875 0.0067,0.0037 0.01286,0.008 0.01953,0.01172 -0.252332,0.118738 -0.507152,0.232119 -0.767578,0.332032 2.715696,1.493868 4.407444,4.341979 4.421875,7.441406 0,4.425536 -3.365858,8.061295 -7.677734,8.492187 v 1.50586 c 5.357865,-0.172635 9.652344,-4.5592 9.652344,-9.958985 -0.0346,-3.360069 -1.760078,-6.477826 -4.587891,-8.292968 z"
           sodipodi:nodetypes="ccccccccccccccccccccccccccccccccccccccccccccccccccccccccccccccccccccccccccccccccccccccccccccccccccccccccccccccccccccccccccccccccccccccccccccccccccccccccccsc" />
        <rect
           style="fill:#ffffff;fill-opacity:0.99702;stroke-width:2;stroke-linecap:square;paint-order:markers stroke fill"
           id="rect13083"
           width="21"
           height="1"
           x="14"
           y="24" />
        <g
           id="g14184"
           transform="translate(0,-2)">
          <g
             id="g10965"
             transform="matrix(-1,0,0,1,49,2)">
            <rect
               style="fill:#ffffff;fill-opacity:0.99702;stroke-width:2.16695;stroke-linecap:square;paint-order:markers stroke fill"
               id="rect9273"
               width="15"
               height="1"
               x="9"
               y="13"
               ry="0.5" />
            <rect
               style="fill:#ffffff;fill-opacity:0.99702;stroke-width:2.16695;stroke-linecap:square;paint-order:markers stroke fill"
               id="rect9499"
               width="15"
               height="2"
               x="25"
               y="12"
               ry="0.97677088" />
          </g>
          <g
             id="g13651"
             transform="matrix(-1,0,0,1,51,7)">
            <rect
               style="fill:#ffffff;fill-opacity:0.99702;stroke-width:2.16695;stroke-linecap:square;paint-order:markers stroke fill"
               id="rect13647"
               width="12"
               height="1"
               x="13"
               y="13"
               ry="0.46875" />
            <rect
               style="fill:#ffffff;fill-opacity:0.99702;stroke-width:2.16695;stroke-linecap:square;paint-order:markers stroke fill"
               id="rect13649"
               width="14"
               height="2"
               x="26"
               y="12"
               ry="1" />
          </g>
        </g>
        <g
           id="g14198"
           transform="rotate(180,24.5,25.5)">
          <g
             id="g14190"
             transform="matrix(-1,0,0,1,49,2)">
            <rect
               style="fill:#ffffff;fill-opacity:0.99702;stroke-width:2.16695;stroke-linecap:square;paint-order:markers stroke fill"
               id="rect14186"
               width="15"
               height="1"
               x="9"
               y="13"
               ry="0.5" />
            <rect
               style="fill:#ffffff;fill-opacity:0.99702;stroke-width:2.16695;stroke-linecap:square;paint-order:markers stroke fill"
               id="rect14188"
               width="15"
               height="2"
               x="25"
               y="12"
               ry="0.97677088" />
          </g>
          <g
             id="g14196"
             transform="matrix(-1,0,0,1,51,7)">
            <rect
               style="fill:#ffffff;fill-opacity:0.99702;stroke-width:2.16695;stroke-linecap:square;paint-order:markers stroke fill"
               id="rect14192"
               width="12"
               height="1"
               x="13"
               y="13"
               ry="0.46875" />
            <rect
               style="fill:#ffffff;fill-opacity:0.99702;stroke-width:2.16695;stroke-linecap:square;paint-order:markers stroke fill"
               id="rect14194"
               width="14"
               height="2"
               x="26"
               y="12"
               ry="1" />
          </g>
        </g>
        <circle
           style="fill:#ffffff;fill-opacity:1;stroke-width:2;stroke-linecap:square;paint-order:markers stroke fill"
           id="path15288"
           cx="15"
           cy="6"
           r="1" />
        <circle
           style="fill:#ffffff;fill-opacity:1;stroke-width:1.54057;stroke-linecap:square;paint-order:markers stroke fill"
           id="circle15475"
           cx="34.229713"
           cy="42.770287"
           r="0.77028477" />
        <circle
           style="fill:#ffffff;fill-opacity:1;stroke-width:2.77231;stroke-linecap:square;paint-order:markers stroke fill"
           id="path15686"
           cx="33.5"
           cy="6.5"
           r="0.49999988" />
        <circle
           style="fill:#ffffff;fill-opacity:1;stroke-width:2.77231;stroke-linecap:square;paint-order:markers stroke fill"
           id="circle15850"
           cx="15.5"
           cy="42.5"
           r="0.49999988" />
      </g>
    </g>
  </g>
  <style
     type="text/css"
     id="current-color-scheme">
        .ColorScheme-NegativeText {
            color:#da4453;
        }
    </style>
</svg>
