<?xml version="1.0" encoding="UTF-8" standalone="no"?>
<svg
   viewBox="0 0 16 16"
   version="1.1"
   id="svg6"
   sodipodi:docname="view-fullscreen.svg"
   inkscape:version="1.1.2 (1:1.1+202202050950+0a00cf5339)"
   xmlns:inkscape="http://www.inkscape.org/namespaces/inkscape"
   xmlns:sodipodi="http://sodipodi.sourceforge.net/DTD/sodipodi-0.dtd"
   xmlns="http://www.w3.org/2000/svg"
   xmlns:svg="http://www.w3.org/2000/svg">
  <sodipodi:namedview
     id="namedview8"
     pagecolor="#ffffff"
     bordercolor="#666666"
     borderopacity="1.0"
     inkscape:pageshadow="2"
     inkscape:pageopacity="0.0"
     inkscape:pagecheckerboard="0"
     showgrid="true"
     inkscape:zoom="30.4375"
     inkscape:cx="6.0780287"
     inkscape:cy="10.26694"
     inkscape:window-width="1366"
     inkscape:window-height="744"
     inkscape:window-x="0"
     inkscape:window-y="24"
     inkscape:window-maximized="1"
     inkscape:current-layer="svg6">
    <inkscape:grid
       type="xygrid"
       id="grid822" />
  </sodipodi:namedview>
  <defs
     id="defs3051">
    <style
       type="text/css"
       id="current-color-scheme">
      .ColorScheme-Text {
        color:#eff0f1;
      }
      </style>
  </defs>
  <path
     style="fill:#3886c7;fill-opacity:1;stroke:none"
     d="M 2 2 L 2 5 L 5 2 L 2 2 z M 11 2 L 14 5 L 14 2 L 11 2 z M 4 4 L 4 6.40625 L 4 11.1875 L 4 12 L 12 12 L 12 11.1875 L 12 4 L 4.8125 4 L 4 4 z M 5 6 L 11 6 L 11 11 L 5 11 L 5 6 z M 2 11 L 2 14 L 5 14 L 2 11 z M 14 11 L 11 14 L 14 14 L 14 11 z "
     class="ColorScheme-Text"
     id="path4" />
  <rect
     style="fill:#cde8ff;fill-opacity:1;stroke-width:2.098;stroke-linecap:square;paint-order:markers stroke fill"
     id="rect1083"
     width="6"
     height="5"
     x="5"
     y="6" />
</svg>
