<?xml version="1.0" encoding="UTF-8" standalone="no"?>
<svg
   viewBox="0 0 40 40"
   width="16px"
   height="16px"
   version="1.1"
   id="svg6"
   sodipodi:docname="go-next.svg"
   inkscape:version="1.1.2 (1:1.1+202202050950+0a00cf5339)"
   xmlns:inkscape="http://www.inkscape.org/namespaces/inkscape"
   xmlns:sodipodi="http://sodipodi.sourceforge.net/DTD/sodipodi-0.dtd"
   xmlns="http://www.w3.org/2000/svg"
   xmlns:svg="http://www.w3.org/2000/svg">
  <defs
     id="defs10" />
  <sodipodi:namedview
     id="namedview8"
     pagecolor="#ffffff"
     bordercolor="#666666"
     borderopacity="1.0"
     inkscape:pageshadow="2"
     inkscape:pageopacity="0.0"
     inkscape:pagecheckerboard="0"
     showgrid="true"
     inkscape:snap-bbox="true"
     inkscape:bbox-paths="true"
     inkscape:bbox-nodes="true"
     inkscape:snap-bbox-edge-midpoints="true"
     inkscape:snap-grids="false"
     inkscape:zoom="32"
     inkscape:cx="5.96875"
     inkscape:cy="7.640625"
     inkscape:window-width="1366"
     inkscape:window-height="744"
     inkscape:window-x="0"
     inkscape:window-y="24"
     inkscape:window-maximized="1"
     inkscape:current-layer="svg6">
    <inkscape:grid
       type="xygrid"
       id="grid827" />
  </sodipodi:namedview>
  <g
     id="g825"
     transform="rotate(-90,19.999996,20.000006)">
    <path
       id="path2"
       style="fill:#cde8ff;fill-opacity:1;stroke-width:1"
       d="M 30.957032,11.5625 20,22.524413 9.3945314,12.626953 6.6162111,15.405273 20,28.085938 33.740234,14.345703 Z"
       sodipodi:nodetypes="ccccccc" />
    <path
       id="path4"
       style="fill:#3886c7;fill-opacity:1;stroke-width:1"
       d="m 9.3945314,11.210937 -0.708008,0.708008 -2.0751953,2.075195 -0.703125,0.698243 v 0.0049 l 3.9355468,3.935547 h 0.00488 l 3.1591791,3.159181 6.992188,6.99707 6.992187,-6.99707 3.203133,-3.203126 3.896485,-3.891602 v -0.0049 L 33.388672,13.99414 31.313477,11.918945 30.605469,11.210937 26.992187,14.824218 23.227539,18.588867 20,21.816405 13.227539,15.048828 13.007812,14.824218 Z m 0,1.416016 3.6132806,3.608398 0.219728,0.219728 v 0.0049 L 19.291992,22.524413 20,23.23242 l 0.708008,-0.708007 3.930664,-3.935546 2.353515,-2.353516 3.613282,-3.608398 2.070313,2.06543 -3.891603,3.896484 L 26.992187,20.38086 20,27.37793 13.007812,20.38086 11.259766,18.632812 7.3242189,14.692383 Z" />
  </g>
</svg>
